<svg width="296" height="74" viewBox="0 0 296 74" fill="none" xmlns="http://www.w3.org/2000/svg">
<path d="M0.808594 36.752H68.1274" stroke="black" stroke-width="1.43676"/>
<path d="M5.32031 19.9199L63.6201 53.5793" stroke="black" stroke-width="1.43676"/>
<path d="M17.6367 7.60547L51.2961 65.9052" stroke="black" stroke-width="1.43676"/>
<path d="M25.75 4.23047L43.1734 69.2554" stroke="black" stroke-width="1.43676"/>
<path d="M43.1836 4.23047L25.7602 69.2554" stroke="black" stroke-width="1.43676"/>
<path d="M51.2969 7.60547L17.6375 65.9052" stroke="black" stroke-width="1.43676"/>
<path d="M63.6211 19.9199L5.32132 53.5793" stroke="black" stroke-width="1.43676"/>
<path d="M66.9844 28.0254L1.95943 45.4488" stroke="black" stroke-width="1.43676"/>
<path d="M66.9844 45.4688L1.95943 28.0454" stroke="black" stroke-width="1.43676"/>
<path d="M34.4688 3.08984L34.4688 70.4086" stroke="black" stroke-width="1.43676"/>
<path d="M58.2656 12.9512L10.6641 60.5527" stroke="black" stroke-width="1.43676"/>
<path d="M58.2656 60.5449L10.6641 12.9434" stroke="black" stroke-width="1.43676"/>
<path d="M89.5065 55.0726H106.309V58.25H86.3829V20.5515H90.4759V57.5499L89.5065 55.0726ZM123.41 58.627C118.814 58.627 115.367 57.5678 113.069 55.4495C110.807 53.2953 109.677 49.9743 109.677 45.4864V20.5515H113.769V45.5941C113.769 49.0049 114.541 51.5181 116.085 53.1338C117.629 54.7135 120.071 55.5034 123.41 55.5034C129.764 55.5034 132.942 52.2003 132.942 45.5941V20.5515H136.981V45.4864C136.981 47.6765 136.658 49.5973 136.012 51.2488C135.401 52.8645 134.504 54.2288 133.319 55.3418C132.134 56.4189 130.698 57.2447 129.01 57.8192C127.359 58.3577 125.492 58.627 123.41 58.627ZM146.707 20.5515H152.685L164.371 49.2562H164.533L176.273 20.5515H182.197V58.25H178.158V24.9676H177.997L166.202 53.9955H162.756L150.908 24.9676H150.8V58.25H146.707V20.5515ZM196.24 20.5515V58.25H192.147V20.5515H196.24ZM209.26 55.0726H228.54V58.25H206.137V20.5515H228.325V23.7289H209.26L210.23 21.2516V39.5085L209.26 37.9467H227.248V40.9625H209.26L210.23 39.4007V57.5499L209.26 55.0726ZM236.167 20.5515H249.362C253.203 20.5515 256.076 21.467 257.979 23.2981C259.917 25.1292 260.887 27.8758 260.887 31.5379V33.369C260.887 36.9234 259.917 39.5982 257.979 41.3934C256.04 43.1885 253.167 44.0861 249.362 44.0861H239.991V41.0702H248.123C251.139 41.0702 253.365 40.424 254.801 39.1315C256.273 37.803 257.009 35.7925 257.009 33.0997V31.7533C257.009 28.917 256.291 26.8525 254.855 25.56C253.419 24.2316 251.175 23.5674 248.123 23.5674H239.291L240.26 22.3826V58.25H236.167V20.5515ZM250.493 43.0629H254.586L261.533 58.25H257.332L250.493 43.0629ZM273.161 55.0726H292.441V58.25H270.037V20.5515H292.225V23.7289H273.161L274.13 21.2516V39.5085L273.161 37.9467H291.148V40.9625H273.161L274.13 39.4007V57.5499L273.161 55.0726Z" fill="black"/>
</svg>
